<?xml version="1.0" standalone="no"?>
<!DOCTYPE svg PUBLIC "-//W3C//DTD SVG 20010904//EN"
 "http://www.w3.org/TR/2001/REC-SVG-20010904/DTD/svg10.dtd">
<svg version="1.0" xmlns="http://www.w3.org/2000/svg"
 width="700.000000pt" height="700.000000pt" viewBox="0 0 700.000000 700.000000"
 preserveAspectRatio="xMidYMid meet">
<metadata>
Created by potrace 1.14, written by Peter Selinger 2001-2017
</metadata>
<g transform="translate(0.000000,700.000000) scale(0.100000,-0.100000)"
fill="#000000" stroke="none">
<path d="M0 5591 c0 -3 217 -429 340 -666 37 -71 120 -233 185 -360 65 -126
146 -284 180 -350 34 -66 113 -219 175 -340 62 -121 147 -287 190 -370 43 -82
123 -240 180 -350 56 -110 135 -263 175 -340 40 -77 121 -234 180 -350 59
-115 142 -277 185 -360 43 -82 139 -270 214 -417 76 -147 141 -270 145 -272 3
-2 39 59 79 137 40 78 109 214 155 302 46 88 139 268 206 400 68 132 143 276
166 320 23 44 93 179 155 300 63 121 163 317 224 435 62 118 129 250 151 292
22 42 43 74 46 70 7 -8 95 -178 294 -567 70 -137 165 -322 210 -410 45 -88
149 -290 230 -450 81 -159 176 -344 210 -410 34 -66 97 -189 140 -272 42 -84
82 -153 88 -154 61 -5 960 -2 963 3 3 4 -44 103 -104 220 -60 117 -162 317
-227 443 -65 127 -155 302 -200 390 -45 88 -135 264 -200 391 l-118 230 138
270 c76 148 141 273 145 277 4 5 259 -495 566 -1110 l559 -1118 480 0 c264 0
484 1 488 3 4 2 -52 119 -124 260 -251 490 -322 628 -389 757 -37 72 -118 229
-180 350 -62 121 -141 274 -175 340 -34 66 -115 224 -180 350 -196 383 -315
615 -370 720 -29 55 -119 231 -201 390 -81 160 -194 380 -251 490 -57 110
-140 273 -186 362 -62 123 -85 159 -93 150 -6 -6 -54 -95 -106 -197 -144 -279
-312 -606 -405 -785 -45 -88 -118 -229 -160 -312 -43 -84 -81 -153 -84 -153
-6 0 -25 37 -175 332 l-95 186 44 84 c24 45 126 243 225 438 99 195 188 369
196 385 9 17 16 32 16 35 0 3 -220 5 -489 5 l-489 0 -128 -250 c-149 -293
-289 -567 -691 -1350 -68 -132 -174 -340 -235 -463 -108 -213 -114 -222 -128
-201 -8 12 -74 137 -146 278 -148 290 -370 725 -514 1006 -223 435 -302 590
-396 775 -54 107 -100 197 -101 199 -4 6 -983 8 -983 2z"/>
</g>
</svg>
